:SAMPLES-PER-SECOND 30
:FULLY-SPECIFIED
:DEGREES
176
root  -3.379488742 33.67111026 6.909355404 5.932006836 -3.145004272 -3.20300293
lowerback  13.34570026 6.380919933 -2.510879993
upperback  4.400400162 7.921350002 -3.87838006
thorax  -2.559010029 3.937210083 -3.855309963
lowerneck  2.95600009 -6.648640156 -12.1718998
upperneck  -1.02662003 -9.258419991 19.24290085
head  0.7255610228 -4.785699844 7.812940121
lclavicle  0 -9.442270133e-015 7.951389973e-016
lhumerus  -5.145669937 -24.13100052 73.73220062
lradius  2.679477013e-031 -2.299836293e-031 139.3600006
lwrist  -7.062250077e-031 -0 12.50829983
lhand  -1.496451383e-031 -27.76390076 20.11240005
lfingers  90 7.125020027 -90
lthumb  89.89689403 5.08795885 91.16245106
rclavicle  0 -9.442270133e-015 7.951389973e-016
rhumerus  54.92879868 -32.75360107 -47.37350082
rradius  3.269106275e-031 1.334836396e-031 22.21109962
rwrist  7.062250077e-031 -7.062250077e-031 18.56920052
rhand  -7.920061211e-032 -33.2840004 9.303460121
rfingers  -90 -7.125020027 -90
rthumb  -92.93752616 -24.25625642 -97.11982154
rfemur  5.665890217 1.103579998 22.77879906
rtibia  -0 0 58.74610138
rfoot  -0 -30.19939995 -15.2184
rtoes  5.373923086 19.29304026 -105.8922705
lfemur  -69.50769806 -2.088579893 -9.653429985
ltibia  -0 0 73.55989838
lfoot  -0 0.445371002 -8.751429558
ltoes  -4.250644065 -19.5611806 -102.515957
177
root  -3.516711213 33.62244433 6.974955431 5.917999268 -2.619995117 -3.544998169
lowerback  13.00570011 6.567850113 -2.502840042
upperback  4.514120102 8.204310417 -3.578830004
thorax  -2.289089918 4.078340054 -3.53888011
lowerneck  3.368669987 -6.847780228 -12.10849953
upperneck  -1.089980006 -9.557370186 19.80360031
head  0.7127150297 -4.96130991 7.989349842
lclavicle  0 -9.442270133e-015 7.951389973e-016
lhumerus  -5.809949875 -24.78380013 74.59079742
lradius  2.662505799e-031 -2.319462633e-031 138.9389954
lwrist  -1.412450015e-030 1.765562519e-031 12.28149986
lhand  -1.496451383e-031 -27.76390076 20.11240005
lfingers  90 7.125020027 -90
lthumb  89.89689403 5.08795885 91.16245106
rclavicle  0 -9.442270133e-015 7.951389973e-016
rhumerus  52.01259995 -30.5340004 -45.19589996
rradius  3.180909051e-031 1.533186762e-031 25.73390007
rwrist  3.531125038e-031 -3.531125038e-031 7.091450214
rhand  -7.920061211e-032 -33.2840004 9.303460121
rfingers  -90 -7.125020027 -90
rthumb  -92.93752616 -24.25625642 -97.11982154
rfemur  6.097290039 1.212309957 23.03580093
rtibia  -0 0 58.25299835
rfoot  -0 -30.24200058 -13.78969955
rtoes  5.373923086 19.29304026 -105.8922705
lfemur  -69.62860107 -1.939120054 -9.251540184
ltibia  -0 0 73.82910156
lfoot  -0 0.08094549924 -9.512160301
ltoes  -4.250644065 -19.5611806 -102.515957
178
root  -3.630088821 33.59599977 7.080199775 5.787002563 -2.180999756 -3.669998169
lowerback  12.53269958 6.639709949 -2.456549883
upperback  4.626900196 8.340880394 -3.514859915
thorax  -1.915099978 4.150589943 -3.446890116
lowerneck  3.363759995 -7.049739838 -12.36419964
upperneck  -0.3617880046 -9.952989578 20.57869911
head  1.041370034 -5.142769814 8.253560066
lclavicle  0 -9.442270133e-015 7.951389973e-016
lhumerus  -6.621749878 -25.28829956 75.20970154
lradius  2.647104975e-031 -2.337023596e-031 138.5599976
lwrist  0 -0 12.40550041
lhand  -1.496451383e-031 -27.76390076 20.11240005
lfingers  90 7.125020027 -90
lthumb  89.89689403 5.08795885 91.16245106
rclavicle  0 -9.442270133e-015 7.951389973e-016
rhumerus  48.92720032 -27.9564991 -43.3431015
rradius  3.067099922e-031 1.749783446e-031 29.70479965
rwrist  7.062250077e-031 -0 -0.04637119919
rhand  -7.920061211e-032 -33.2840004 9.303460121
rfingers  -90 -7.125020027 -90
rthumb  -92.93752616 -24.25625642 -97.11982154
rfemur  6.855140209 1.152279973 22.85330009
rtibia  -0 0 57.53150177
rfoot  -0 -30.23180008 -12.14190006
rtoes  5.373923086 19.29304026 -105.8922705
lfemur  -69.45610046 -1.898939967 -9.180370331
ltibia  -0 0 74.05809784
lfoot  -0 -0.3545889854 -9.90060997
ltoes  -4.250644065 -19.5611806 -102.515957
179
root  -3.721311149 33.59333249 7.208288748 5.427993774 -1.802993774 -3.240005493
lowerback  12.12269974 6.638050079 -2.705660105
upperback  4.789519787 8.339209557 -3.667840004
thorax  -1.535410047 4.153049946 -3.404720068
lowerneck  3.552059889 -7.121119976 -12.63469982
upperneck  0.2975389957 -10.18620014 21.36230087
head  1.293460011 -5.252960205 8.545040131
lclavicle  0 -9.442270133e-015 7.951389973e-016
lhumerus  -7.602980137 -25.67910004 75.75509644
lradius  2.633929632e-031 -2.351862821e-031 138.2380066
lwrist  -7.062250077e-031 -1.765562519e-031 12.68400002
lhand  -1.496451383e-031 -27.76390076 20.11240005
lfingers  90 7.125020027 -90
lthumb  89.89689403 5.08795885 91.16245106
rclavicle  0 -9.442270133e-015 7.951389973e-016
rhumerus  45.93180084 -25.16600037 -41.83280182
rradius  2.942706783e-031 1.951748146e-031 33.5542984
rwrist  7.062250077e-031 -0 -2.103620052
rhand  -7.920061211e-032 -33.2840004 9.303460121
rfingers  -90 -7.125020027 -90
rthumb  -92.93752616 -24.25625642 -97.11982154
rfemur  7.957499981 0.9200639725 21.85860062
rtibia  -0 0 56.77519989
rfoot  -0 -30.31380081 -10.45199966
rtoes  5.373923086 19.29304026 -105.8922705
lfemur  -68.85579681 -2.099349976 -9.794819832
ltibia  -0 0 74.15529633
lfoot  -0 -0.7257710099 -9.73939991
ltoes  -4.250644065 -19.5611806 -102.515957
180
root  -3.827977744 33.61333412 7.224000345 5.382003784 -1.552993774 -3.434997559
lowerback  12.09189987 6.566860199 -2.398750067
upperback  4.731259823 8.281049728 -3.705120087
thorax  -1.534010053 4.129039764 -3.600660086
lowerneck  3.720400095 -7.129389763 -12.72500038
upperneck  0.7462400198 -10.29370022 21.89539909
head  1.444569945 -5.303390026 8.734700203
lclavicle  0 -9.442270133e-015 7.951389973e-016
lhumerus  -8.554639816 -25.81819916 76.25879669
lradius  2.623023871e-031 -2.364019842e-031 137.9730072
lwrist  -1.412450015e-030 -0 12.84969997
lhand  -1.496451383e-031 -27.76390076 20.11240005
lfingers  90 7.125020027 -90
lthumb  89.89689403 5.08795885 91.16245106
rclavicle  0 -9.442270133e-015 7.951389973e-016
rhumerus  43.37590027 -22.10000038 -40.24420166
rradius  2.838475037e-031 2.100453166e-031 36.50120163
rwrist  7.062250077e-031 -0 -0.8106349707
rhand  -7.920061211e-032 -33.2840004 9.303460121
rfingers  -90 -7.125020027 -90
rthumb  -92.93752616 -24.25625642 -97.11982154
rfemur  8.29172039 0.9890729785 21.77120018
rtibia  -0 0 56.20080185
rfoot  -0 -30.34519958 -9.385910034
rtoes  5.373923086 19.29304026 -105.8922705
lfemur  -68.6690979 -1.908869982 -9.68696022
ltibia  -0 0 74.00980377
lfoot  -0 -0.6898739934 -9.571780205
ltoes  -4.250644065 -19.5611806 -102.515957
